# xmcd
#
# Track frame offsets: 
#        150
#        14801
#        32826
#        47605
#        59590
#        70290
#        80494
#        98032
#        108123
#        121078
#        134092
#        144474
#        157317
#        166951
#        180602
#        193023
#        204680
#        215397
#        227920
#        239374
#        249524
#        263111
#        272862
#        284128
#
# Disc length: 3976 seconds
#
# Revision: 1
# Processed by: cddbd v1.5.2PL0 Copyright (c) Steve Scherf et al.
# Submitted via: ExactAudioCopy v1.1
#
DISCID=760f8618
DTITLE=The Country Gentlemen - Cmplete Starday Recordings_CD2
DYEAR=2009
DGENRE=Bluegrass
TTITLE0=Two Little Boys
TTITLE1=Willie Roy, The Crippled Boy
TTITLE2=Sunrise
TTITLE3=Silence Or Tears
TTITLE4=Country Concert
TTITLE5=These Men Of God
TTITLE6=Down Where The Still Waters Flow
TTITLE7=Nobody's Business
TTITLE8=Copper Kettle
TTITLE9=Night Walk
TTITLE10=Home Sweet Home
TTITLE11=This Land Is Your Land
TTITLE12=My Old Kentucky Home
TTITLE13=Take This Hammer
TTITLE14=Auld Lang Syne
TTITLE15=Goodbye Katy
TTITLE16=Camptown Races
TTITLE17=Red River Valley
TTITLE18=Oh Susanna
TTITLE19=Long Journey Home
TTITLE20=500 Miles
TTITLE21=Free Little Bird
TTITLE22=Rose Connelly
TTITLE23=Blowin' In The Wind
EXTD=
EXTT0=
EXTT1=
EXTT2=
EXTT3=
EXTT4=
EXTT5=
EXTT6=
EXTT7=
EXTT8=
EXTT9=
EXTT10=
EXTT11=
EXTT12=
EXTT13=
EXTT14=
EXTT15=
EXTT16=
EXTT17=
EXTT18=
EXTT19=
EXTT20=
EXTT21=
EXTT22=
EXTT23=
PLAYORDER=
